# xmcd
#
# Track frame offsets:
#	150
#	14024
#	27811
#	43532
#	56014
#	72657
#	87679
#	102501
#
# Disc length: 1559 seconds
#
# Revision: 0
# Processed by: cddbd v1.5.2PL0 Copyright (c) Steve Scherf et al.
# Submitted via: EasyCDDAExtractor 10.0.2.1
#
DISCID=71061508
DTITLE=Debbie Domer - A Christmas Gift
DYEAR=2006
DGENRE=Gospel
TTITLE0=Christ's Christmas Gift
TTITLE1=Christ Birthday Party
TTITLE2=Put Christ Back In Christmas
TTITLE3=Jesus Came Bearing Gifts
TTITLE4=Just Give Me Jesus
TTITLE5=A Christmas Gift
TTITLE6=Christmas Is All About Jesus
TTITLE7=No Room At The Inn
EXTD=
EXTT0=
EXTT1=
EXTT2=
EXTT3=
EXTT4=
EXTT5=
EXTT6=
EXTT7=
PLAYORDER=
